<svg xmlns="http://www.w3.org/2000/svg" xmlns:xlink="http://www.w3.org/1999/xlink" viewBox="0 0 235.93 106.58"><defs><style>.cls-1{fill:url(#radial-gradient);}.cls-2{fill:url(#radial-gradient-2);}.cls-3{fill:url(#linear-gradient);}.cls-4{fill:url(#linear-gradient-2);}.cls-5{fill:url(#linear-gradient-3);}.cls-6{fill:url(#linear-gradient-4);}.cls-7{fill:url(#linear-gradient-5);}.cls-8{fill:url(#linear-gradient-6);}.cls-9{fill:url(#radial-gradient-3);}.cls-10{fill:url(#radial-gradient-4);}.cls-11{fill:url(#linear-gradient-7);}.cls-12{fill:url(#linear-gradient-8);}.cls-13{opacity:0.2;}.cls-14,.cls-19{fill:#fff;}.cls-15{opacity:0.4;}.cls-16{fill:#6dc3c6;}.cls-17{font-size:26.23px;font-family:Prompt-ExtraBoldItalic, Prompt;font-weight:800;font-style:italic;}.cls-17,.cls-18{fill:#f9a354;}.cls-19{font-size:34.02px;font-family:BrushScriptStd, Brush Script Std;}.cls-20{fill:#e8a9ab;}</style><radialGradient id="radial-gradient" cx="109.77" cy="-167.77" r="38.68" gradientTransform="translate(-84.41 229.32) scale(1.07 1.07)" gradientUnits="userSpaceOnUse"><stop offset="0" stop-color="#a1d7c4"/><stop offset="0.02" stop-color="#9bd5c2"/><stop offset="0.19" stop-color="#64c1b0"/><stop offset="0.36" stop-color="#39b2a2"/><stop offset="0.51" stop-color="#1aa698"/><stop offset="0.63" stop-color="#079f92"/><stop offset="0.72" stop-color="#009d90"/><stop offset="0.81" stop-color="#049b8e"/><stop offset="0.9" stop-color="#0f9589"/><stop offset="0.99" stop-color="#218c81"/><stop offset="1" stop-color="#258a7f"/></radialGradient><radialGradient id="radial-gradient-2" cx="32.75" cy="46.51" r="36.37" gradientTransform="matrix(1, 0, 0, 1, 0, 0)" xlink:href="#radial-gradient"/><linearGradient id="linear-gradient" x1="32.75" y1="21.43" x2="32.75" y2="0" gradientTransform="matrix(1, 0, 0, 1, 0, 0)" xlink:href="#radial-gradient"/><linearGradient id="linear-gradient-2" x1="11.52" y1="43.38" x2="53.8" y2="85.66" gradientUnits="userSpaceOnUse"><stop offset="0" stop-color="#00878d"/><stop offset="0.12" stop-color="#048a90"/><stop offset="0.24" stop-color="#0f9299"/><stop offset="0.35" stop-color="#21a0a8"/><stop offset="0.45" stop-color="#3ab3bc"/><stop offset="0.5" stop-color="#cee8d7"/><stop offset="0.6" stop-color="#3ab3bc"/><stop offset="0.75" stop-color="#1e8392"/><stop offset="0.84" stop-color="#1e7f90"/><stop offset="0.91" stop-color="#1c7488"/><stop offset="0.99" stop-color="#1a627c"/><stop offset="1" stop-color="#1a5e7a"/></linearGradient><linearGradient id="linear-gradient-3" x1="63.74" y1="76.6" x2="1.76" y2="76.6" gradientUnits="userSpaceOnUse"><stop offset="0" stop-color="#fee8b1"/><stop offset="0.15" stop-color="#fadba1"/><stop offset="0.35" stop-color="#f2c484"/><stop offset="0.43" stop-color="#f2c684"/><stop offset="0.46" stop-color="#f4cd86"/><stop offset="0.48" stop-color="#f7d889"/><stop offset="0.49" stop-color="#fbe98d"/><stop offset="0.5" stop-color="#fff790"/><stop offset="0.63" stop-color="#fef28f"/><stop offset="0.79" stop-color="#fae38b"/><stop offset="0.97" stop-color="#f3ca85"/><stop offset="1" stop-color="#f2c484"/></linearGradient><linearGradient id="linear-gradient-4" x1="10.29" y1="59.69" x2="55.21" y2="14.77" xlink:href="#linear-gradient-2"/><linearGradient id="linear-gradient-5" x1="1.64" y1="24.89" x2="63.86" y2="24.89" gradientUnits="userSpaceOnUse"><stop offset="0" stop-color="#00878d"/><stop offset="0.11" stop-color="#04898e"/><stop offset="0.22" stop-color="#0f908f"/><stop offset="0.32" stop-color="#229b92"/><stop offset="0.42" stop-color="#3caa96"/><stop offset="0.45" stop-color="#46b098"/><stop offset="0.5" stop-color="#cee8d7"/><stop offset="0.6" stop-color="#46b096"/><stop offset="0.75" stop-color="#1e8392"/><stop offset="0.84" stop-color="#1e7f90"/><stop offset="0.91" stop-color="#1c7488"/><stop offset="0.99" stop-color="#1a627c"/><stop offset="1" stop-color="#1a5e7a"/></linearGradient><linearGradient id="linear-gradient-6" x1="1.64" y1="49.6" x2="63.86" y2="49.6" xlink:href="#linear-gradient-3"/><radialGradient id="radial-gradient-3" cx="32.76" cy="135.12" r="39.14" gradientTransform="translate(0 -65.98) scale(1 0.96)" xlink:href="#radial-gradient"/><radialGradient id="radial-gradient-4" cx="32.76" cy="25.73" r="39.14" gradientTransform="translate(0 32.6) scale(1 1.01)" gradientUnits="userSpaceOnUse"><stop offset="0" stop-color="#a1d7c4"/><stop offset="0.02" stop-color="#9bd5c2"/><stop offset="0.19" stop-color="#64c7b1"/><stop offset="0.36" stop-color="#39bca4"/><stop offset="0.51" stop-color="#1ab49a"/><stop offset="0.63" stop-color="#07af94"/><stop offset="0.72" stop-color="#00ad92"/><stop offset="0.81" stop-color="#04aa90"/><stop offset="0.9" stop-color="#0f9f8a"/><stop offset="0.99" stop-color="#218d81"/><stop offset="1" stop-color="#258a7f"/></radialGradient><linearGradient id="linear-gradient-7" y1="58.67" x2="65.53" y2="58.67" gradientUnits="userSpaceOnUse"><stop offset="0" stop-color="#ffe08a"/><stop offset="0.16" stop-color="#f7d086"/><stop offset="0.25" stop-color="#f2c484"/><stop offset="0.38" stop-color="#f2c684"/><stop offset="0.43" stop-color="#f4cd86"/><stop offset="0.46" stop-color="#f7d889"/><stop offset="0.49" stop-color="#fbe98d"/><stop offset="0.5" stop-color="#fff790"/><stop offset="0.54" stop-color="#fdde7e"/><stop offset="0.58" stop-color="#fcc86f"/><stop offset="0.62" stop-color="#fab763"/><stop offset="0.68" stop-color="#faac5a"/><stop offset="0.77" stop-color="#f9a555"/><stop offset="1" stop-color="#f9a354"/></linearGradient><linearGradient id="linear-gradient-8" x1="3.76" y1="19.53" x2="61.77" y2="77.53" gradientUnits="userSpaceOnUse"><stop offset="0" stop-color="#ffe08a"/><stop offset="0.22" stop-color="#f7d086"/><stop offset="0.35" stop-color="#f2c484"/><stop offset="0.43" stop-color="#f2c684"/><stop offset="0.46" stop-color="#f4cd86"/><stop offset="0.48" stop-color="#f7d889"/><stop offset="0.49" stop-color="#fbe98d"/><stop offset="0.5" stop-color="#fff790"/><stop offset="0.51" stop-color="#fbe98d"/><stop offset="0.53" stop-color="#f7d889"/><stop offset="0.55" stop-color="#f4cd86"/><stop offset="0.58" stop-color="#f2c684"/><stop offset="0.67" stop-color="#f2c484"/><stop offset="0.83" stop-color="#f1c382"/><stop offset="0.89" stop-color="#efbd7b"/><stop offset="0.93" stop-color="#eab570"/><stop offset="0.97" stop-color="#e4a85f"/><stop offset="0.99" stop-color="#dc9749"/><stop offset="1" stop-color="#da9343"/></linearGradient></defs><g id="Layer_2" data-name="Layer 2"><g id="Layer_30" data-name="Layer 30"><ellipse class="cls-1" cx="32.75" cy="49.6" rx="31.11" ry="49.6"/><path class="cls-2" d="M32.75,87.49c16.83,0,30.54-17.6,31.1-39.58a75.91,75.91,0,0,0-2-16C57.34,16.47,46,5.54,32.75,5.54S8.16,16.47,3.69,31.87a75.26,75.26,0,0,0-2,16C2.22,69.89,15.92,87.49,32.75,87.49Z"/><path class="cls-3" d="M58.36,21.43C52.75,8.48,43.37,0,32.75,0s-20,8.48-25.61,21.43Z"/><path class="cls-4" d="M32.66,94.47c-16,0-29.24-18.29-30.62-41.6C3.42,78.19,16.61,98,32.66,98S61.9,78.19,63.28,52.87C61.9,76.18,48.72,94.47,32.66,94.47Z"/><path class="cls-5" d="M32.75,95.61c-16.25,0-29.59-18.28-31-41.6,1.4,25.33,14.74,45.18,31,45.18S62.34,79.34,63.74,54C62.34,77.33,49,95.61,32.75,95.61Z"/><path class="cls-6" d="M32.75,5.54C49.9,5.54,63.8,25.9,63.86,51v-.18c0-27.39-13.93-49.6-31.11-49.6S1.64,23.47,1.64,50.86V51C1.7,25.9,15.61,5.54,32.75,5.54Z"/><path class="cls-7" d="M32.75,4.28c17.15,0,31.05,20.35,31.11,45.5V49.6C63.86,22.2,49.93,0,32.75,0S1.64,22.2,1.64,49.6v.18C1.7,24.63,15.61,4.28,32.75,4.28Z"/><path class="cls-8" d="M32.75,0C15.57,0,1.64,22.2,1.64,49.6S15.57,99.19,32.75,99.19,63.86,77,63.86,49.6,49.93,0,32.75,0Zm0,97.93C16,97.93,2.5,76.33,2.5,49.7S16,1.47,32.75,1.47,63,23.06,63,49.7,49.46,97.93,32.75,97.93Z"/><path class="cls-9" d="M64,29.47c-3.51-8.65-30-8.56-31.2-8.55s-27.68-.1-31.2,8.55C1.37,30-5.17,43.08,10,76.57c0,0,11.39,28.12,22.69,30v0h.09v0c11.3-1.87,22.69-30,22.69-30C70.7,43.08,64.16,30,64,29.47Z"/><path class="cls-10" d="M64,22.5c-3.51-9.12-30-9-31.2-9s-27.68-.1-31.2,9C1.37,23-5.17,36.86,10,72.19c0,0,11.39,29.67,22.69,31.65v0h.09v0c11.3-2,22.69-31.65,22.69-31.65C70.7,36.86,64.16,23,64,22.5Z"/><path class="cls-11" d="M64,22.5c-3.51-9.12-30-9-31.2-9s-27.68-.1-31.2,9C1.37,23-5.17,36.86,10,72.19c0,0,11.39,29.67,22.69,31.65v0h.09v0c11.3-2,22.69-31.65,22.69-31.65C70.7,36.86,64.16,23,64,22.5ZM52,70.78S42.35,97.34,32.8,99.12h-.07c-9.56-1.78-19.19-28.34-19.19-28.34C.7,39.14,6.22,26.74,6.39,26.29c3-8.18,25.37-8.09,26.37-8.09s23.4-.09,26.38,8.09C59.3,26.74,64.83,39.14,52,70.78Z"/><path class="cls-12" d="M64,22.5c-3.51-9.12-30-9-31.2-9s-27.68-.1-31.2,9C1.37,23-5.17,36.86,10,72.19c0,0,11.39,29.67,22.69,31.65v0h.09v0c11.3-2,22.69-31.65,22.69-31.65C70.7,36.86,64.16,23,64,22.5ZM54.91,71.86s-11.1,29-22.11,30.88v0h-.08v0c-11-1.93-22.1-30.88-22.1-30.88-14.8-34.47-8.44-48-8.25-48.48,3.43-8.9,29.24-8.81,30.39-8.8s27-.1,30.39,8.8C63.34,23.87,69.71,37.39,54.91,71.86Z"/><g class="cls-13"><path class="cls-14" d="M22.39,37c0-.36-.18-.82,0-1s.68-.07,1-.07.89-.17,1.11.08.06.71.06,1.08.15.82-.07,1-.68.07-1,.07-.89.17-1.11-.08S22.39,37.4,22.39,37Z"/><path class="cls-14" d="M27.67,37.1c0-.42-.14-.88.07-1.11s.68-.07,1-.07.87-.17,1.11.08.06.71.06,1.08.15.81-.06,1-.68.07-1,.07-.89.17-1.11-.08S27.68,37.4,27.67,37.1Z"/><path class="cls-14" d="M17.08,39.68c0-.35-.19-.81,0-1s.68-.08,1-.07.89-.18,1.11.08.07.71.06,1.08.16.82-.06,1-.68.07-1,.07-.89.17-1.1-.09S17.08,40.06,17.08,39.68Z"/><path class="cls-14" d="M20.83,40.82c-.36,0-.83.14-1,0s-.06-.69-.08-1.06,0-.58,0-.87,0-.28.25-.28h1.78c.2,0,.26.07.26.27q0,.87,0,1.74c0,.22-.08.29-.29.27h-.87Z"/><path class="cls-14" d="M31.52,40.86c-.42,0-.88.14-1.11-.07s-.07-.68-.07-1-.17-.87.08-1.11.71-.06,1.08-.06.81-.15,1,.06.07.68.07,1,.17.89-.08,1.11S31.82,40.85,31.52,40.86Z"/><path class="cls-14" d="M34.16,38.6c.36,0,.82-.18,1,0s.07.69.06,1,.18.89-.08,1.11-.71.06-1.08.06-.81.15-1-.07-.07-.68-.06-1-.18-.89.08-1.1S33.79,38.6,34.16,38.6Z"/><path class="cls-14" d="M15.49,43.51c-.23,0-.47,0-.7,0s-.43,0-.41-.37c0-.53,0-1,0-1.58,0-.24,0-.35.31-.34.55,0,1.11,0,1.66,0,.22,0,.32,0,.32.29,0,.57,0,1.13,0,1.7,0,.25-.1.3-.32.29Z"/><path class="cls-14" d="M18.17,43.51c-.36,0-.82.15-1-.07s-.08-.68-.07-1-.18-.87.07-1.11.71-.06,1.08-.06.81-.16,1,.06.07.68.07,1,.17.87-.07,1.11S18.54,43.48,18.17,43.51Z"/><path class="cls-14" d="M31.45,43.48c-.36,0-.82.18-1,0s-.07-.68-.07-1-.18-.88.08-1.1.71-.07,1.08-.07.82-.15,1,.07.07.68.07,1,.17.89-.08,1.1S31.82,43.48,31.45,43.48Z"/><path class="cls-14" d="M35.24,42.39c0,.35.14.83,0,1s-.7.07-1.06.09-.58,0-.87,0-.29,0-.28-.24c0-.6,0-1.19,0-1.79,0-.16,0-.25.22-.25q.91,0,1.83,0c.18,0,.24.07.23.24s0,.61,0,.92Z"/><path class="cls-14" d="M12.86,46.13c-.36,0-.83.14-1,0s-.06-.7-.08-1.07,0-.58,0-.87,0-.28.25-.28c.59,0,1.19,0,1.78,0,.16,0,.26,0,.26.22,0,.61,0,1.22,0,1.82,0,.19-.08.24-.25.24s-.61,0-.91,0Z"/><path class="cls-14" d="M16.64,45c0,.36.14.83,0,1s-.7.06-1.06.08-.58,0-.87,0-.29,0-.28-.25c0-.59,0-1.18,0-1.78,0-.16,0-.26.22-.25h1.83c.18,0,.24.07.23.24s0,.61,0,.91Z"/><path class="cls-14" d="M34.12,46.14c-.36,0-.83.14-1,0S33,45.4,33,45s0-.61,0-.92.06-.24.24-.23h1.82c.16,0,.22.06.22.22v1.82c0,.18-.06.24-.24.24s-.61,0-.91,0Z"/><path class="cls-14" d="M36.7,46.17c-.29,0-.75.15-1-.07s-.06-.7-.08-1.07,0-.5,0-.75,0-.42.37-.4c.52,0,1,0,1.58,0,.23,0,.34,0,.33.32q0,.82,0,1.65c0,.28-.09.33-.33.32S37,46.17,36.7,46.17Z"/><path class="cls-14" d="M10.19,48.79c-.36,0-.81.19-1,0s-.07-.68-.07-1-.17-.89.08-1.11.71-.07,1.08-.06.82-.15,1,.06.07.68.07,1,.18.89-.08,1.1S10.56,48.79,10.19,48.79Z"/><path class="cls-14" d="M12.86,48.84c-.36,0-.83.1-1-.08s-.06-.7-.08-1.07,0-.56,0-.83,0-.33.29-.32c.57,0,1.13,0,1.7,0,.2,0,.3,0,.3.27q0,.87,0,1.74c0,.23-.08.29-.29.28s-.58,0-.87,0Z"/><path class="cls-14" d="M37.9,47.7c0,.36.14.83,0,1s-.7.06-1.07.08-.58,0-.87,0-.28-.08-.27-.29c0-.57,0-1.13,0-1.7,0-.24.08-.31.31-.3h1.7c.23,0,.29.08.28.29s0,.58,0,.87Z"/><path class="cls-14" d="M40.6,47.64c0,.42.14.88-.08,1.11s-.68.07-1,.07-.88.17-1.12-.08-.06-.71-.06-1.08-.15-.81.06-1,.68-.07,1-.07.88-.17,1.1.08S40.58,47.34,40.6,47.64Z"/><path class="cls-14" d="M41,47.66c0-.36-.18-.82,0-1s.68-.07,1-.07.89-.18,1.11.08.06.71.06,1.08.15.82-.07,1-.68.07-1,.07-.89.17-1.11-.08S41,48,41,47.66Z"/><path class="cls-14" d="M43.65,47.65c0-.35-.18-.81,0-1s.68-.07,1-.07.89-.18,1.1.08.07.71.07,1.08.15.82-.07,1-.68.07-1,.07-.89.17-1.1-.09S43.65,48,43.65,47.65Z"/><path class="cls-14" d="M46.31,47.66c0-.36-.19-.82,0-1s.68-.07,1-.07.89-.17,1.11.08.07.71.06,1.08.16.82-.06,1-.68.07-1,.07-.89.17-1.1-.08S46.31,48,46.31,47.66Z"/><path class="cls-14" d="M50.07,48.83c-.36,0-.84.15-1.07-.09s-.06-.68-.06-1-.16-.84.06-1.08.71-.07,1.08-.07.84-.16,1.07.07.06.69.06,1,.16.85-.06,1.08S50.44,48.79,50.07,48.83Z"/><path class="cls-14" d="M51.58,47.68c.05-.37-.15-.85.1-1.07s.68-.07,1-.06.85-.16,1.08.06.08.71.07,1.08.17.85-.07,1.07-.68.06-1,.06-.85.16-1.08-.07S51.63,48.05,51.58,47.68Z"/><path class="cls-14" d="M56.5,47.71c0,.35.18.81,0,1s-.68.07-1,.07-.89.17-1.11-.08-.07-.71-.07-1.08-.15-.82.07-1,.68-.07,1-.07.89-.17,1.11.08S56.5,47.34,56.5,47.71Z"/><path class="cls-14" d="M56.53,50.42c0,.3.15.76-.07,1s-.7.06-1.07.08-.53,0-.79,0-.37,0-.36-.33c0-.54,0-1.08,0-1.62,0-.23,0-.34.31-.33.55,0,1.1,0,1.66,0,.27,0,.33.09.31.33S56.53,50.08,56.53,50.42Z"/><path class="cls-14" d="M56.53,55.57c0,.29.15.76-.07,1s-.7.06-1.07.08-.53,0-.79,0-.37,0-.36-.33c0-.54,0-1.08,0-1.62,0-.24,0-.35.31-.34.55,0,1.1,0,1.66,0,.27,0,.33.1.31.34S56.53,55.23,56.53,55.57Z"/><path class="cls-14" d="M42,59.12c-.29,0-.76.15-1-.06S41,58.35,41,58s0-.5,0-.74,0-.43.38-.41c.52,0,1,0,1.57,0,.24,0,.35,0,.34.31,0,.55,0,1.11,0,1.66,0,.27-.1.33-.34.31Z"/><path class="cls-14" d="M45.87,58c0,.35.18.81,0,1s-.68.07-1,.06-.89.18-1.11-.08-.07-.71-.07-1.08-.15-.81.07-1,.68-.07,1-.06.89-.18,1.11.08S45.87,57.64,45.87,58Z"/><path class="cls-14" d="M47.4,59.12c-.36,0-.82.15-1-.07s-.08-.68-.08-1-.17-.87.08-1.11.71-.06,1.08-.06.81-.16,1,.06.07.68.07,1,.17.87-.07,1.11S47.77,59.09,47.4,59.12Z"/><path class="cls-14" d="M50.05,59.09c-.36,0-.81.18-1,0s-.07-.68-.07-1-.17-.89.08-1.11.71-.07,1.08-.07.81-.15,1,.07.07.68.07,1,.17.89-.08,1.11S50.42,59.09,50.05,59.09Z"/><path class="cls-14" d="M51.62,58c0-.35-.18-.81,0-1s.68-.07,1-.06.89-.18,1.1.08.07.71.07,1.08.15.81-.07,1-.68.07-1,.06-.89.18-1.11-.08S51.62,58.32,51.62,58Z"/><path class="cls-14" d="M11.74,60.6c0-.26,0-.53,0-.79s0-.32.29-.32c.57,0,1.13,0,1.7,0,.2,0,.3,0,.3.26,0,.58,0,1.16,0,1.74,0,.19,0,.28-.25.28H12c-.21,0-.27-.08-.26-.27S11.74,60.9,11.74,60.6Z"/><path class="cls-14" d="M15.49,61.78c-.26,0-.52,0-.78,0s-.33,0-.32-.29c0-.57,0-1.13,0-1.7,0-.2,0-.3.27-.3.58,0,1.16,0,1.74,0,.18,0,.28,0,.27.24,0,.6,0,1.19,0,1.78,0,.21-.07.27-.27.26Z"/><path class="cls-14" d="M47.44,59.49c.36,0,.82-.15,1.05.08s.06.68.06,1,.13.86-.06,1.08-.72.07-1.1.08-.82.16-1-.07-.06-.68-.07-1-.12-.86.06-1.08S47.07,59.54,47.44,59.49Z"/><path class="cls-14" d="M15.51,64.4c-.36,0-.82.19-1,0s-.08-.68-.07-1-.18-.89.08-1.11.71-.07,1.08-.06.81-.15,1,.06.08.68.07,1,.18.89-.07,1.1S15.88,64.4,15.51,64.4Z"/><path class="cls-14" d="M17.08,63.28c0-.36-.14-.83,0-1s.7-.06,1.06-.08.58,0,.87,0,.28,0,.28.25c0,.59,0,1.19,0,1.78,0,.16,0,.26-.23.26H17.28c-.19,0-.24-.08-.23-.25s0-.61,0-.91Z"/><path class="cls-14" d="M47.4,64.45c-.36,0-.83.1-1-.08s-.06-.71-.08-1.07,0-.56,0-.83,0-.33.29-.32c.56,0,1.13,0,1.69,0,.2,0,.31,0,.3.27q0,.87,0,1.74c0,.23-.08.29-.29.28s-.58,0-.87,0Z"/><path class="cls-14" d="M17.08,65.92c0-.35-.19-.81,0-1s.68-.07,1-.06.88-.18,1.1.08.07.71.06,1.08.16.82-.06,1-.69.07-1,.06-.89.18-1.11-.08S17.08,66.29,17.08,65.92Z"/><path class="cls-14" d="M20.76,67.09c-.29,0-.76.15-1-.06s-.06-.71-.08-1.08,0-.47,0-.7.06-.47.42-.45,1,0,1.53,0c.24,0,.35,0,.34.31,0,.55,0,1.11,0,1.66,0,.27-.1.33-.34.31S21.1,67.09,20.76,67.09Z"/><path class="cls-14" d="M24.66,66c0,.31.18.82-.08,1s-.71.06-1.08.06-.86.12-1.07-.06-.08-.73-.08-1.11-.16-.84.06-1.07.7-.06,1.07-.08.61,0,.91,0,.29.08.28.29S24.66,65.65,24.66,66Z"/><path class="cls-14" d="M44.75,67.06c-.36,0-.83.14-1,0s-.07-.7-.09-1.07,0-.61,0-.91.06-.24.24-.24h1.82c.16,0,.22.06.22.22,0,.61,0,1.22,0,1.82,0,.18-.06.25-.24.24s-.61,0-.91,0Z"/><path class="cls-14" d="M24.61,68.8c0,.36.19.82,0,1s-.68.07-1,.07-.89.17-1.11-.08-.07-.71-.06-1.08-.16-.82.06-1,.68-.07,1-.07.89-.18,1.1.08S24.61,68.43,24.61,68.8Z"/><path class="cls-14" d="M42,69.91c-.29,0-.76.16-1-.06S41,69.14,41,68.78s0-.53,0-.79,0-.37.33-.36q.81,0,1.62,0c.24,0,.35,0,.34.31,0,.56,0,1.11,0,1.66,0,.27-.1.33-.34.32S42.36,69.91,42,69.91Z"/><path class="cls-14" d="M23.47,72.54c-.35,0-.81.18-1,0s-.08-.68-.07-1-.18-.89.08-1.11.71-.07,1.08-.06.82-.16,1,.06.07.68.07,1,.17.89-.09,1.1S23.85,72.54,23.47,72.54Z"/><path class="cls-14" d="M41,71.43c0-.37-.16-.84.08-1.07s.69-.06,1-.06.85-.16,1.08.06.08.7.08,1.07.16.84-.08,1.08-.68.06-1,.06-.84.15-1.08-.07S41,71.8,41,71.43Z"/><path class="cls-14" d="M24.64,74.13c0,.31.16.79-.06,1s-.74,0-1.12.07-.5,0-.74,0-.38,0-.36-.33c0-.54,0-1.08,0-1.62,0-.24,0-.35.31-.34.55,0,1.11,0,1.66,0,.27,0,.33.1.32.34S24.64,73.8,24.64,74.13Z"/><path class="cls-14" d="M26.08,75.23c-.3,0-.76.15-1-.07s-.06-.7-.08-1.07,0-.47,0-.71.05-.46.41-.44c.51,0,1,0,1.54,0,.24,0,.35,0,.33.31,0,.55,0,1.11,0,1.66,0,.27-.09.33-.33.31S26.42,75.23,26.08,75.23Z"/><path class="cls-14" d="M39.43,75.2c-.36,0-.83.14-1,0s-.06-.7-.08-1.07,0-.58,0-.87,0-.28.25-.27h1.78c.16,0,.26,0,.26.22,0,.61,0,1.22,0,1.82,0,.19-.07.24-.25.24s-.61,0-.91,0Z"/><path class="cls-14" d="M26.16,77.89c-.37,0-.84.16-1.08-.08s-.06-.69,0-1-.16-.85.06-1.08.7-.08,1.07-.08.84-.16,1.07.08.06.68.06,1,.16.84-.06,1.08S26.53,77.85,26.16,77.89Z"/><path class="cls-14" d="M35.68,76.73c0-.36-.14-.83,0-1s.7-.06,1.06-.08h.87c.19,0,.29,0,.28.25,0,.59,0,1.19,0,1.78,0,.16,0,.26-.23.26-.6,0-1.21,0-1.82,0-.18,0-.24-.08-.23-.25s0-.61,0-.91Z"/><path class="cls-14" d="M26.14,80.55c-.36,0-.81.14-1-.07s-.08-.68-.07-1-.17-.87.07-1.11.71-.06,1.08-.06.82-.15,1,.06.07.68.07,1,.17.87-.07,1.12S26.51,80.51,26.14,80.55Z"/><path class="cls-14" d="M29.92,79.42c0,.35.14.83,0,1s-.7.06-1.07.08-.58,0-.87,0-.28,0-.28-.24c0-.59,0-1.19,0-1.78,0-.21.08-.26.27-.26h1.74c.22,0,.29.08.28.29s0,.58,0,.87Z"/><path class="cls-14" d="M32.61,79.49c0,.29.16.75-.06,1s-.71.06-1.08.08-.49,0-.74,0-.42,0-.4-.38c0-.52,0-1,0-1.57,0-.24,0-.35.31-.34.56,0,1.11,0,1.66,0,.27,0,.33.09.32.33S32.61,79.15,32.61,79.49Z"/><path class="cls-14" d="M34.11,80.56c-.35,0-.83.1-1-.09S33,79.77,33,79.4s0-.55,0-.82,0-.33.29-.32c.57,0,1.13,0,1.7,0,.2,0,.3,0,.29.27q0,.87,0,1.74c0,.23-.08.28-.29.27s-.58,0-.87,0Z"/><path class="cls-14" d="M37.9,79.43c0,.35.18.81,0,1s-.68.07-1,.07-.89.17-1.11-.08-.07-.71-.07-1.08-.15-.82.07-1,.68-.07,1-.07.89-.17,1.11.08S37.9,79.06,37.9,79.43Z"/></g><g class="cls-15"><path class="cls-14" d="M27.32,37.11c0,.31.17.82-.08,1s-.71.07-1.08.07-.86.12-1.08-.07-.07-.72-.08-1.1-.16-.85.07-1.08.7-.06,1.07-.07.61,0,.91,0,.29.08.28.29S27.32,36.76,27.32,37.11Z"/><path class="cls-14" d="M23.5,40.89c-.37,0-.86.11-1.08-.08s-.07-.73-.07-1.11-.16-.84.06-1.07.71-.06,1.07-.08.58,0,.87,0,.33.08.32.33c0,.56,0,1.13,0,1.69,0,.23-.06.32-.3.31s-.58,0-.87,0Z"/><path class="cls-14" d="M26.26,38.55c.3,0,.79-.17,1,.09s.06.68.06,1,.16.89-.06,1.12-.76.07-1.15.08-.82.15-1-.06-.06-.68-.07-1,0-.61,0-.91.09-.33.34-.31S25.9,38.55,26.26,38.55Z"/><path class="cls-14" d="M28.75,40.87c-.31,0-.79.16-1-.06s-.06-.73-.08-1.11,0-.61,0-.91.06-.24.24-.24q.93,0,1.86,0c.19,0,.23.08.23.25,0,.6,0,1.21,0,1.82,0,.19-.06.27-.26.26Z"/><path class="cls-14" d="M22,42.42c0,.32.16.81-.08,1s-.71.05-1.08.06-.86.12-1.08-.06-.07-.73-.08-1.11-.16-.84.06-1.08.7-.05,1.07-.07.61,0,.91,0,.29.07.28.29S22,42.07,22,42.42Z"/><path class="cls-14" d="M22.37,42.33c0-.36-.14-.83,0-1s.69-.06,1.06-.08.61,0,.91,0,.29,0,.29.28c0,.59,0,1.18,0,1.78,0,.22-.08.28-.29.28-.58,0-1.16,0-1.73,0-.23,0-.33-.06-.31-.3s0-.61,0-.91Z"/><path class="cls-14" d="M30,42.37c0,.37.14.86,0,1.08s-.72.07-1.1.08-.85.16-1.08-.07-.06-.7-.07-1.07,0-.61,0-.91.08-.28.29-.28c.58,0,1.16,0,1.73,0,.23,0,.33.06.31.3s0,.58,0,.87Z"/><path class="cls-14" d="M18.15,46.16c-.36,0-.83.14-1,0s-.06-.7-.08-1.06,0-.61,0-.91.06-.29.28-.29h1.78c.22,0,.28.08.27.29,0,.58,0,1.16,0,1.73,0,.23-.06.33-.3.31h-.91Z"/><path class="cls-14" d="M22,45.13c0,.3.16.78-.09,1s-.68.06-1,.06-.88.16-1.12-.07-.07-.76-.07-1.15-.16-.81.06-1,.68-.06,1-.07.5,0,.74,0c.42-.06.53.12.48.5A6.56,6.56,0,0,0,22,45.13Z"/><path class="cls-14" d="M23.4,46.19c-.3,0-.79.17-1-.09s-.06-.68-.06-1-.16-.88.07-1.11.76-.07,1.15-.08.81-.16,1,.07.06.68.07,1,0,.5,0,.74c.06.42-.12.53-.5.48S23.7,46.19,23.4,46.19Z"/><path class="cls-14" d="M28.76,46.19c-.31,0-.82.17-1-.09s-.06-.7-.06-1.07-.12-.86.06-1.08.73-.07,1.11-.08.84-.16,1.07.06S30,44.64,30,45s0,.6,0,.91-.08.28-.28.27Z"/><path class="cls-14" d="M31.38,46.19c-.3,0-.79.16-1-.08s-.07-.69-.07-1-.16-.89.07-1.12.75-.07,1.15-.08.81-.15,1,.06.06.68.07,1,0,.63,0,1-.08.28-.29.27Z"/><path class="cls-14" d="M14.4,47.64c0-.35-.14-.83,0-1s.69-.07,1.06-.09.61,0,.91,0,.29,0,.29.27c0,.6,0,1.19,0,1.78,0,.23-.08.28-.29.28H14.67c-.22,0-.32-.05-.31-.3s0-.6,0-.91Z"/><path class="cls-14" d="M19.32,47.68c0,.37.15.86,0,1.08s-.72.07-1.1.08-.84.16-1.08-.06S17,48.07,17,47.71s0-.64,0-1,.07-.24.24-.24h1.87c.19,0,.23.09.22.25v.91Z"/><path class="cls-14" d="M22,47.73c0,.35.14.82,0,1s-.7.07-1.06.08-.61,0-.91,0-.3-.05-.29-.28q0-.89,0-1.77c0-.23.08-.29.29-.28H21.7c.23,0,.33,0,.31.3s0,.6,0,.9Z"/><path class="cls-14" d="M30.3,47.68c0-.37-.11-.86.08-1.07s.73-.08,1.11-.08.84-.16,1.07.06.06.71.07,1.08,0,.58,0,.86-.09.33-.33.32h-1.7c-.23,0-.32-.06-.3-.3s0-.58,0-.87Z"/><path class="cls-14" d="M33,47.64c0-.35-.14-.83,0-1s.69-.07,1.06-.09.61,0,.91,0,.29,0,.29.27c0,.6,0,1.19,0,1.78,0,.23-.08.28-.29.28H33.27c-.22,0-.32-.05-.31-.3s0-.6,0-.91Z"/><path class="cls-14" d="M11.35,50.34c0,.37.14.86,0,1.08s-.72.07-1.1.08-.85.16-1.08-.07-.06-.7-.07-1.07,0-.61,0-.91.08-.28.29-.28c.59,0,1.18,0,1.78,0,.19,0,.27,0,.26.25s0,.61,0,.91Z"/><path class="cls-14" d="M14,50.41c0,.31.15.78-.07,1s-.71,0-1.07.07-.61,0-.91,0-.29-.07-.28-.29c0-.58,0-1.16,0-1.73,0-.23,0-.32.29-.32q.87,0,1.74,0c.24,0,.31.08.3.31S14,50.06,14,50.41Z"/><path class="cls-14" d="M14.37,50.28c0-.31-.17-.82.09-1s.71-.06,1.07-.06.86-.16,1.08.06.06.73.08,1.12,0,.6,0,.9-.06.25-.24.25H14.6c-.19,0-.24-.09-.23-.25Z"/><path class="cls-14" d="M19.35,50.4c0,.31.17.82-.08,1s-.71.07-1.08.07-.86.12-1.08-.07-.07-.72-.08-1.1-.16-.84.07-1.08.7,0,1.07-.07.6,0,.91,0,.28.08.27.29S19.35,50,19.35,50.4Z"/><path class="cls-14" d="M30.34,50.35c0-.37-.14-.86,0-1.08s.72-.08,1.1-.09.85-.16,1.08.06.06.74.07,1.12,0,.6,0,.91-.06.24-.24.24H30.54c-.19,0-.23-.09-.23-.25s0-.61,0-.91Z"/><path class="cls-14" d="M35.29,50.41c0,.3.16.79-.06,1s-.73.06-1.11.08h-.91c-.18,0-.25-.06-.24-.24V49.41c0-.19.08-.24.25-.23H35c.2,0,.27.06.27.26S35.29,50,35.29,50.41Z"/><path class="cls-14" d="M38,50.42c0,.3.16.78-.07,1s-.71.06-1.07.07-.58,0-.87,0-.33-.09-.32-.33c0-.57,0-1.13,0-1.7,0-.23.07-.31.3-.31q.87,0,1.74,0c.25,0,.31.09.29.32S38,50.06,38,50.42Z"/><path class="cls-14" d="M40.61,50.41c0,.3.16.79-.07,1s-.73.06-1.11.08h-.91c-.17,0-.24-.06-.24-.24q0-.93,0-1.86c0-.19.08-.24.25-.23h1.82c.19,0,.27.06.26.26S40.61,50,40.61,50.41Z"/><path class="cls-14" d="M42.2,49.18c.3,0,.79-.17,1,.08s.07.69.06,1,.17.89-.06,1.12-.76.07-1.15.08-.81.15-1-.07,0-.68-.07-1,0-.61,0-.91.09-.33.33-.32S41.85,49.18,42.2,49.18Z"/><path class="cls-14" d="M44.76,49.21c.37,0,.86-.15,1.08,0s.07.72.08,1.1.16.84-.07,1.08-.7.06-1.07.07h-1c-.18,0-.24-.07-.23-.25V49.4c0-.19.08-.23.25-.22h.91Z"/><path class="cls-14" d="M47.36,51.5c-.31,0-.82.18-1-.08s-.07-.71-.06-1.08-.16-.86.06-1.08.73-.06,1.11-.08h.91c.18,0,.24,0,.24.23,0,.62,0,1.25,0,1.87,0,.18-.08.23-.25.23Z"/><path class="cls-14" d="M50.09,49.18H51c.18,0,.24,0,.24.23q0,.93,0,1.86c0,.19-.08.24-.25.24H49.17c-.19,0-.26-.06-.26-.26,0-.61,0-1.22,0-1.82,0-.21.08-.26.27-.25Z"/><path class="cls-14" d="M51.6,50.3c0-.35-.14-.83,0-1s.69-.07,1.06-.08.87-.16,1.12.07,0,.73.07,1.11,0,.58,0,.87-.07.28-.29.28c-.58,0-1.16,0-1.73,0-.28,0-.33-.1-.31-.34s0-.58,0-.87Z"/><path class="cls-14" d="M26.1,54.16c-.31,0-.81.17-1-.08S25,53.37,25,53s-.12-.86.07-1.08.72-.07,1.1-.08.84-.16,1.08.07.05.7.07,1.07,0,.6,0,.91-.08.28-.29.27Z"/><path class="cls-14" d="M35.29,53.1c0,.3.17.79-.08,1s-.69.06-1,.06-.89.16-1.12-.07S33,53.34,33,52.94s-.15-.81.07-1,.68-.06,1-.07.5,0,.75,0c.42-.06.53.12.48.5A6.37,6.37,0,0,0,35.29,53.1Z"/><path class="cls-14" d="M38,53.05c0,.31.17.8-.08,1s-.71.06-1.08.07-.86.12-1.08-.07-.07-.72-.08-1.1-.16-.84.06-1.08.71-.06,1.07-.07.64,0,1,0,.25.07.24.24S38,52.68,38,53.05Z"/><path class="cls-14" d="M10.15,56.65c-.31,0-.79.16-1-.06s-.07-.73-.08-1.12,0-.6,0-.9.06-.25.24-.25h1.86c.19,0,.23.08.23.25,0,.61,0,1.22,0,1.82,0,.2-.06.27-.26.26Z"/><path class="cls-14" d="M12.87,56.62c-.37,0-.86.14-1.07,0s-.08-.72-.08-1.1-.16-.85.06-1.08.71-.06,1.07-.07.61,0,.91,0,.28.08.28.29c0,.59,0,1.19,0,1.78,0,.19,0,.27-.26.26h-.91Z"/><path class="cls-14" d="M15.47,56.65c-.31,0-.82.17-1-.09s-.06-.71-.06-1.08-.16-.85.06-1.07.73-.06,1.12-.08h.9c.18,0,.25.06.25.24q0,.93,0,1.86c0,.19-.09.24-.25.23Z"/><path class="cls-14" d="M19.32,55.53c0,.36.14.83,0,1s-.69.06-1.06.08h-.91c-.21,0-.29,0-.29-.27,0-.59,0-1.19,0-1.78,0-.22.08-.28.29-.28.58,0,1.16,0,1.74,0,.22,0,.32.06.3.3s0,.61,0,.91Z"/><path class="cls-14" d="M26.24,54.33c.3,0,.78-.16,1,.07s.05.7.07,1.07,0,.58,0,.87-.09.32-.34.32c-.56,0-1.13,0-1.69,0-.23,0-.31-.07-.31-.31,0-.57,0-1.15,0-1.73,0-.25.09-.31.31-.3S25.88,54.33,26.24,54.33Z"/><path class="cls-14" d="M27.65,55.44c0-.32-.16-.81.09-1s.7-.06,1.07-.06.86-.12,1.08.06.08.73.08,1.11.16.84-.06,1.07-.7.06-1.07.08h-.95c-.18,0-.24-.06-.24-.24S27.65,55.81,27.65,55.44Z"/><path class="cls-14" d="M35.29,55.59c0,.3.17.79-.08,1s-.69.06-1,.06-.89.16-1.12-.07S33,55.83,33,55.43s-.15-.81.07-1,.68-.06,1-.07.5,0,.75,0c.42-.06.53.12.48.5A6.37,6.37,0,0,0,35.29,55.59Z"/><path class="cls-14" d="M36.75,56.62c-.36,0-.83.14-1,0s-.06-.69-.08-1.06,0-.61,0-.91.06-.29.28-.29c.59,0,1.18,0,1.78,0,.22,0,.28.08.27.29,0,.58,0,1.16,0,1.74,0,.22-.06.32-.3.31s-.61,0-.91,0Z"/><path class="cls-14" d="M43.27,55.54c0,.31.16.81-.09,1.05s-.7,0-1.07.06-.86.12-1.08-.06S41,55.86,41,55.48s-.16-.84.06-1.08.7-.06,1.07-.07h1c.18,0,.24.07.24.25S43.27,55.17,43.27,55.54Z"/><path class="cls-14" d="M45.92,55.59c0,.3.17.79-.08,1s-.69.06-1,.06-.89.16-1.12-.07-.07-.75-.08-1.15-.15-.81.07-1,.68-.06,1-.07.5,0,.75,0c.42-.06.53.12.48.5A6.37,6.37,0,0,0,45.92,55.59Z"/><path class="cls-14" d="M47.46,54.36c.35,0,.83-.14,1,0s.07.7.09,1.07,0,.6,0,.91,0,.29-.27.29c-.6,0-1.19,0-1.78,0-.22,0-.28-.08-.28-.29q0-.87,0-1.74c0-.22,0-.32.3-.31s.6,0,.91,0Z"/><path class="cls-14" d="M50.12,54.36c.35,0,.82-.14,1,0s.07.7.08,1.07,0,.6,0,.91-.05.29-.28.29q-.89,0-1.77,0c-.23,0-.29-.08-.28-.29q0-.87,0-1.74c0-.23.05-.32.3-.31s.6,0,.91,0Z"/><path class="cls-14" d="M52.79,54.33c.31,0,.82-.18,1,.08s.07.71.06,1.08.16.86-.06,1.08-.73.06-1.11.08h-.91c-.18,0-.25,0-.24-.23V54.55c0-.18.08-.23.25-.23Z"/><path class="cls-14" d="M11.74,58c0-.37-.14-.85,0-1.07s.72-.08,1.1-.09.85-.16,1.08.06S14,57.62,14,58s0,.6,0,.91-.06.24-.24.23H11.94c-.19,0-.23-.09-.23-.26s0-.6,0-.9Z"/><path class="cls-14" d="M15.48,59.14c-.31,0-.8.17-1.05-.08s0-.71-.06-1.08-.12-.85.06-1.07.73-.08,1.11-.09.84-.15,1.07.06.07.71.08,1.08,0,.63,0,.95-.07.24-.24.23Z"/><path class="cls-14" d="M18.24,56.82c.32,0,.82-.17,1,.08s.07.71.07,1.08.12.86-.07,1.08-.72.07-1.1.08-.85.16-1.08-.07S17,58.37,17,58s0-.61,0-.91.08-.29.29-.28S17.89,56.82,18.24,56.82Z"/><path class="cls-14" d="M22,58.05c0,.3.16.79-.07,1s-.73.06-1.11.08h-.91c-.18,0-.24,0-.24-.23q0-.93,0-1.86c0-.19.08-.24.25-.23h1.82c.19,0,.27.07.26.26S22,57.68,22,58.05Z"/><path class="cls-14" d="M27.32,58.05c0,.31.16.78-.07,1s-.7.06-1.07.08-.6,0-.91,0-.28-.08-.28-.29q0-.87,0-1.74c0-.22.05-.31.3-.31q.87,0,1.74,0c.23,0,.31.08.3.31S27.32,57.7,27.32,58.05Z"/><path class="cls-14" d="M27.69,57.94c0-.36-.14-.83,0-1s.7-.06,1.07-.08.6,0,.91,0,.29.06.28.28c0,.59,0,1.19,0,1.78,0,.22-.07.28-.28.28-.58,0-1.16,0-1.74,0-.23,0-.32-.06-.31-.3s0-.61,0-.91Z"/><path class="cls-14" d="M19.32,60.64c0,.37.14.86,0,1.07s-.72.08-1.1.08-.85.16-1.08-.06S17,61,17,60.66s0-.61,0-.91.08-.28.29-.28h1.78c.19,0,.27.06.26.26s0,.6,0,.91Z"/><path class="cls-14" d="M20.75,61.8c-.3,0-.79.16-1-.08s-.07-.69-.06-1-.17-.89.06-1.12.75-.07,1.15-.08.81-.15,1,.06.06.68.08,1,0,.63,0,1-.08.28-.29.27Z"/><path class="cls-14" d="M26.16,59.46c.37,0,.86-.11,1.08.08s.07.73.08,1.11.16.84-.07,1.07-.7.06-1.07.08-.58,0-.87,0-.32-.08-.32-.33c0-.56,0-1.13,0-1.69,0-.23.06-.32.3-.31s.58,0,.87,0Z"/><path class="cls-14" d="M30,60.71c0,.3.16.78-.07,1s-.7.06-1.07.08-.61,0-.91,0-.28-.07-.28-.28q0-.87,0-1.74c0-.22.05-.32.3-.31.57,0,1.15,0,1.73,0,.24,0,.32.07.3.31S30,60.36,30,60.71Z"/><path class="cls-14" d="M39.35,61.8c-.3,0-.79.17-1-.09s-.07-.68-.06-1-.17-.89.06-1.12.76-.07,1.15-.08.81-.15,1,.06.05.68.07,1,0,.61,0,.91-.09.33-.33.31Z"/><path class="cls-14" d="M43.27,60.69c-.05.32.17.82-.09,1s-.71.07-1.08.07-.86.12-1.07-.07S41,61,41,60.63s-.16-.85.06-1.08.7-.06,1.07-.07.61,0,.91,0,.29.08.28.29S43.27,60.34,43.27,60.69Z"/><path class="cls-14" d="M44.7,61.8c-.31,0-.82.17-1-.09s-.06-.71-.06-1.08-.16-.85.06-1.07.73-.06,1.11-.08.61,0,.91,0,.25.06.25.24q0,.93,0,1.86c0,.19-.09.24-.25.23Z"/><path class="cls-14" d="M22,63.35c0,.31.17.82-.09,1s-.7.06-1.07.06-.86.13-1.08-.06-.08-.73-.08-1.11-.16-.84.06-1.07.71-.06,1.07-.08.61,0,.91,0,.29.08.28.29S22,63,22,63.35Z"/><path class="cls-14" d="M23.46,64.43c-.35,0-.83.13-1,0s-.07-.7-.09-1.06,0-.61,0-.91.05-.3.27-.29h1.78c.22,0,.28.07.28.28q0,.87,0,1.74c0,.23-.05.33-.3.31s-.6,0-.91,0Z"/><path class="cls-14" d="M27.29,63.29c0,.37.14.87,0,1.08s-.72.08-1.1.08-.85.16-1.08-.06S25,63.68,25,63.31s0-.6,0-.9.08-.29.29-.28H27c.23,0,.32,0,.31.3s0,.57,0,.86Z"/><path class="cls-14" d="M28.78,64.43c-.36,0-.83.14-1,0s-.08-.7-.08-1.06-.17-.88.06-1.12.73-.06,1.12-.08.57,0,.86,0,.29.07.28.28c0,.58,0,1.16,0,1.74,0,.27-.11.32-.34.31s-.58,0-.87,0Z"/><path class="cls-14" d="M30.34,63.29c0-.37-.14-.86,0-1.07s.72-.08,1.1-.08.85-.16,1.08.06.06.71.07,1.07,0,.61,0,.91-.08.28-.29.28H30.62c-.23,0-.33-.06-.31-.3s0-.58,0-.87Z"/><path class="cls-14" d="M37.92,63.29c0,.37.14.87,0,1.08s-.72.08-1.1.08-.85.16-1.08-.06-.06-.71-.07-1.08,0-.6,0-.9.08-.29.29-.28h1.74c.22,0,.32,0,.31.3s0,.57,0,.86Z"/><path class="cls-14" d="M38.32,63.25c0-.35-.14-.83,0-1s.7-.07,1.06-.09.61,0,.91,0,.3,0,.29.28q0,.89,0,1.77c0,.23-.08.28-.29.28H38.59c-.23,0-.33-.06-.31-.3s0-.6,0-.91Z"/><path class="cls-14" d="M42.2,62.13c.3,0,.79-.16,1,.09s.07.68.06,1,.17.88-.06,1.11-.76.08-1.15.08-.82.16-1-.06,0-.68-.07-1a6.06,6.06,0,0,0,0-.74c-.06-.42.12-.53.51-.48A6.39,6.39,0,0,0,42.2,62.13Z"/><path class="cls-14" d="M45.89,63.33c0,.36.14.83,0,1s-.7.07-1.07.08-.6,0-.91,0-.29,0-.29-.28q0-.89,0-1.77c0-.23.08-.29.29-.28h1.74c.22,0,.32,0,.31.3s0,.6,0,.9Z"/><path class="cls-14" d="M25,66c0-.37-.1-.86.09-1.08s.72-.07,1.1-.08.85-.16,1.08.07.05.7.07,1.07,0,.58,0,.87-.09.33-.33.32c-.57,0-1.14,0-1.7,0-.23,0-.32-.06-.31-.3s0-.58,0-.87Z"/><path class="cls-14" d="M28.76,67.11c-.32,0-.82.18-1-.08s-.07-.71-.06-1.08-.16-.86.06-1.08.73-.06,1.11-.08.61,0,.91,0,.24.06.24.24q0,.93,0,1.86c0,.18-.08.23-.25.23Z"/><path class="cls-14" d="M31.4,67.11c-.3,0-.78.16-1-.06s-.06-.71-.08-1.08,0-.6,0-.9.07-.29.28-.29q.87,0,1.74,0c.22,0,.32,0,.31.3q0,.87,0,1.74c0,.23-.07.31-.31.3S31.76,67.11,31.4,67.11Z"/><path class="cls-14" d="M36.85,64.79c.31,0,.82-.17,1,.09S38,65.59,38,66s.16.85-.06,1.07-.74.06-1.12.08-.6,0-.91,0-.24-.06-.24-.24q0-.93,0-1.86c0-.19.08-.24.25-.23Z"/><path class="cls-14" d="M40.58,66c0,.37.14.86,0,1.08s-.72.07-1.1.08-.85.16-1.08-.07-.06-.7-.07-1.07,0-.61,0-.91.08-.28.29-.27c.58,0,1.16,0,1.73,0,.23,0,.33.06.31.3s0,.58,0,.87Z"/><path class="cls-14" d="M42.05,67.11c-.32,0-.82.17-1-.08s-.07-.71-.07-1.08-.12-.86.07-1.08.72-.07,1.1-.08.85-.16,1.08.07.06.7.07,1.07,0,.61,0,.91-.08.29-.29.28S42.4,67.11,42.05,67.11Z"/><path class="cls-14" d="M25,68.72c0-.31-.17-.8.08-1s.71-.06,1.08-.06.85-.13,1.07.06.08.72.09,1.1.15.84-.06,1.08-.71.06-1.08.07-.63,0-.95,0S25,69.88,25,69.7,25,69.09,25,68.72Z"/><path class="cls-14" d="M30,68.77c0,.37.14.87,0,1.08s-.72.08-1.1.08-.85.16-1.08-.06-.06-.71-.07-1.08,0-.6,0-.9.08-.29.29-.28q.87,0,1.74,0c.22,0,.32,0,.3.3s0,.58,0,.86Z"/><path class="cls-14" d="M32.64,68.85c0,.3.15.78-.07,1s-.71.06-1.07.07-.61,0-.91,0-.29-.08-.28-.29q0-.89,0-1.77c0-.19.05-.27.25-.27.61,0,1.22,0,1.82,0,.21,0,.27.07.26.26S32.64,68.48,32.64,68.85Z"/><path class="cls-14" d="M35.66,68.73c0-.35-.14-.82,0-1s.7-.07,1.07-.09.6,0,.91,0,.29,0,.29.27c0,.6,0,1.19,0,1.78,0,.22-.08.28-.29.28H35.93c-.23,0-.32,0-.31-.3s0-.6,0-.91Z"/><path class="cls-14" d="M39.48,67.64c.36,0,.83-.14,1,0s.08.7.08,1.06.17.88-.06,1.12-.73.06-1.11.07-.58,0-.87,0-.28-.07-.28-.28c0-.58,0-1.16,0-1.74,0-.28.1-.32.34-.31s.58,0,.86,0Z"/><path class="cls-14" d="M26.1,72.59c-.31,0-.81.17-1-.08S25,71.8,25,71.43s-.12-.86.07-1.08.72-.07,1.1-.08.84-.15,1.08.07.05.7.07,1.07,0,.61,0,.91-.08.29-.29.28S26.46,72.59,26.1,72.59Z"/><path class="cls-14" d="M30,71.49c0,.31.17.8-.08,1s-.71.06-1.08.06-.86.12-1.08-.06-.07-.73-.08-1.11-.16-.84.06-1.07.71-.06,1.07-.08.64,0,.95,0,.25.06.24.24S30,71.11,30,71.49Z"/><path class="cls-14" d="M30.34,71.43c0-.37-.14-.86,0-1.08s.73-.07,1.11-.08.84-.15,1.07.07.06.7.07,1.07,0,.61,0,.91-.08.28-.29.28H30.57c-.19,0-.27-.06-.26-.26s0-.61,0-.91Z"/><path class="cls-14" d="M33,71.38c0-.31-.17-.8.08-1s.71,0,1.08-.06.86-.12,1.08.06.07.73.08,1.11.16.84-.06,1.08-.71.06-1.07.07h-.95c-.18,0-.25-.07-.24-.24S33,71.75,33,71.38Z"/><path class="cls-14" d="M35.63,71.38c0-.31-.17-.8.08-1s.71,0,1.07-.06.86-.12,1.08.06.08.73.09,1.11.15.84-.07,1.08-.7.06-1.07.07h-1c-.18,0-.24-.07-.24-.24S35.63,71.75,35.63,71.38Z"/><path class="cls-14" d="M38.31,71.39c0-.35-.14-.83,0-1s.7-.07,1.06-.08.88-.16,1.12.07.06.73.08,1.11,0,.58,0,.87-.07.28-.28.28H38.59c-.23,0-.33,0-.31-.3s0-.61,0-.91Z"/><path class="cls-14" d="M30,74.16c0,.3.16.78-.07,1s-.7.06-1.07.08-.61,0-.91,0-.28-.07-.28-.28q0-.87,0-1.74c0-.22.05-.32.3-.31.57,0,1.15,0,1.73,0,.24,0,.32.08.3.31S30,73.81,30,74.16Z"/><path class="cls-14" d="M32.64,74.17c0,.3.15.77-.07,1s-.71.06-1.07.08-.61,0-.91,0-.29-.07-.28-.28c0-.59,0-1.19,0-1.78,0-.19.05-.27.25-.27.61,0,1.22,0,1.82,0,.21,0,.27.08.26.27S32.64,73.8,32.64,74.17Z"/><path class="cls-14" d="M35.29,74.14c0,.31.17.81-.08,1s-.71,0-1.08.06-.85.12-1.07-.07-.08-.72-.09-1.1-.15-.84.07-1.08.7-.06,1.07-.07h1c.18,0,.24.07.24.25S35.29,73.77,35.29,74.14Z"/><path class="cls-14" d="M36.79,75.22c-.37,0-.86.14-1.08,0s-.07-.72-.08-1.1-.16-.85.07-1.08.7-.06,1.07-.07.61,0,.91,0,.28.08.27.29c0,.59,0,1.19,0,1.78,0,.19-.05.27-.25.26s-.61,0-.91,0Z"/><path class="cls-14" d="M27.65,76.68c.05-.31-.17-.81.09-1s.71-.07,1.08-.06.85-.16,1.08.06.06.73.08,1.11,0,.61,0,.91-.06.24-.24.24H27.88c-.19,0-.23-.08-.23-.25S27.65,77.06,27.65,76.68Z"/><path class="cls-14" d="M30.31,76.65c0-.3-.16-.77.08-1s.68-.06,1-.06.89-.13,1.12.06.07.75.08,1.14.15.82-.06,1-.68.06-1,.08-.64,0-.95,0-.29-.07-.28-.28S30.31,77,30.31,76.65Z"/><path class="cls-14" d="M34,77.91c-.3,0-.78.16-1-.09s-.07-.68-.07-1-.16-.89.06-1.12.76-.07,1.15-.08.82-.16,1,.06.06.68.07,1,0,.64,0,.95-.08.29-.29.28Z"/></g><path class="cls-14" d="M25,42.37c0-.37-.15-.87,0-1.08s.73-.07,1.11-.08.87-.13,1.08,0,.07.73.08,1.11.13.87-.05,1.08-.73.07-1.11.08-.87.13-1.08-.05S25,42.75,25,42.37Z"/><path class="cls-14" d="M25,45c0-.37-.18-.86.06-1.07s.68-.06,1-.05.92-.18,1.14.08.07.73.06,1.12.16.85-.08,1.06-.68.07-1,.06-.92.17-1.14-.08S25,45.37,25,45Z"/><path class="cls-14" d="M23.54,46.54c.37,0,.86-.18,1.07.06s.06.68.05,1,.18.92-.07,1.15-.74.06-1.13.05-.85.16-1.06-.07-.07-.68-.06-1-.17-.93.08-1.15S23.16,46.54,23.54,46.54Z"/><path class="cls-14" d="M25,47.65c0-.37-.19-.86.05-1.07s.69-.07,1,0,.93-.18,1.15.07.07.74.06,1.12.16.86-.08,1.07-.68.06-1,.05-.92.18-1.14-.07S25,48,25,47.65Z"/><path class="cls-14" d="M30,47.66c0,.38.15.89,0,1.11s-.72.07-1.11.07-.86.13-1.08-.06-.06-.7-.06-1.07-.13-.89.06-1.12.73-.06,1.11-.07.86-.12,1.08.07S29.94,47.29,30,47.66Z"/><path class="cls-14" d="M22,50.3c0,.39.15.91,0,1.12s-.76.07-1.15.08-.84.13-1,0-.06-.7-.07-1.07-.14-.91,0-1.12.76-.07,1.15-.08.84-.12,1,.06S22,49.94,22,50.3Z"/><path class="cls-14" d="M23.54,49.2c.37,0,.86-.18,1.07.06s.06.68.05,1,.18.92-.08,1.15-.73.06-1.12,0-.86.16-1.07-.08-.06-.68-.05-1-.17-.92.08-1.14S23.16,49.2,23.54,49.2Z"/><path class="cls-14" d="M26.16,49.2c.38,0,.88-.15,1.08,0s.07.72.08,1.11.13.87-.06,1.08-.72.06-1.11.07-.87.13-1.07-.06-.07-.72-.08-1.1-.13-.87.06-1.08S25.78,49.21,26.16,49.2Z"/><path class="cls-14" d="M30,50.38c0,.37.18.86-.06,1.07s-.68.06-1,0-.92.18-1.15-.08-.06-.73-.05-1.12-.16-.86.07-1.07.69-.06,1,0,.93-.18,1.15.08S30,50,30,50.38Z"/><path class="cls-14" d="M10.18,54.14c-.37,0-.86.18-1.07,0s-.06-.69,0-1-.18-.93.07-1.15.74-.07,1.12-.06.86-.16,1.07.07.07.68.06,1,.17.92-.08,1.15S10.57,54.14,10.18,54.14Z"/><path class="cls-14" d="M14,53c0,.3,0,.61,0,.91s0,.24-.23.23H11.94c-.18,0-.24,0-.23-.23,0-.62,0-1.24,0-1.87,0-.18,0-.23.23-.23.62,0,1.25,0,1.87,0,.18,0,.24.05.23.24S14,52.7,14,53Z"/><path class="cls-14" d="M16.67,53c0,.37.18.86-.06,1.07s-.68.06-1,0-.92.17-1.14-.08-.07-.74-.06-1.12-.16-.86.08-1.07.68-.06,1,0,.92-.18,1.15.08S16.67,52.65,16.67,53Z"/><path class="cls-14" d="M18.2,51.86c.37,0,.87-.15,1.08,0s.06.73.07,1.11.13.87-.06,1.08-.73.06-1.11.07-.88.13-1.08-.06S17,53.37,17,53s-.13-.87.06-1.08S17.82,51.88,18.2,51.86Z"/><path class="cls-14" d="M20.83,54.13c-.37,0-.87.14-1.08,0s-.05-.7-.07-1.07,0-.64,0-1,.05-.24.23-.24c.62,0,1.25,0,1.87,0,.18,0,.24.05.23.23,0,.63,0,1.25,0,1.87,0,.18-.05.24-.23.23h-1Z"/><path class="cls-14" d="M22.36,53c0-.39-.15-.91,0-1.12s.75-.07,1.15-.08.83-.13,1,0,.06.7.07,1.07.14.9-.05,1.12-.76.06-1.15.08-.84.12-1-.06S22.38,53.4,22.36,53Z"/><path class="cls-14" d="M30,53c0,.37.14.86,0,1.07s-.7.06-1.07.07-.64,0-1,0-.23,0-.23-.23q0-.93,0-1.86c0-.19.05-.24.23-.24.62,0,1.25,0,1.87,0,.18,0,.24.05.23.23s0,.64,0,1Z"/><path class="cls-14" d="M30.34,53c0-.37-.19-.86,0-1.07s.69-.07,1-.06.93-.17,1.15.07.07.74.06,1.12.16.86-.07,1.07-.68.07-1,.06-.93.17-1.15-.08S30.34,53.35,30.34,53Z"/><path class="cls-14" d="M39.48,54.14c-.39,0-.91.15-1.12,0s-.06-.76-.07-1.15-.13-.84.05-1,.7-.06,1.07-.07.91-.14,1.12.06.06.75.07,1.15.13.83-.05,1S39.85,54.12,39.48,54.14Z"/><path class="cls-14" d="M43.25,53c0,.37.18.86-.06,1.07s-.69.06-1,0-.93.17-1.15-.08-.07-.74-.06-1.12-.16-.86.08-1.07.68-.06,1,0,.92-.18,1.15.08S43.25,52.65,43.25,53Z"/><path class="cls-14" d="M44.8,51.86c.37,0,.86-.19,1.07,0s.06.69.05,1,.18.93-.08,1.15-.73.07-1.12.06-.86.16-1.07-.08-.06-.68,0-1-.18-.92.08-1.14S44.41,51.86,44.8,51.86Z"/><path class="cls-14" d="M47.42,51.86c.37,0,.88-.15,1.08,0s.07.72.08,1.1.13.88-.06,1.08-.73.07-1.11.08-.87.13-1.08-.06-.06-.73-.07-1.11-.13-.87.05-1.08S47,51.87,47.42,51.86Z"/><path class="cls-14" d="M48.93,53c0-.39-.15-.91,0-1.12s.75-.07,1.15-.08.84-.13,1,0,.06.7.07,1.07.14.9,0,1.12-.75.07-1.15.08-.84.12-1-.06S49,53.4,48.93,53Z"/><path class="cls-14" d="M53.86,53c0,.37.15.86,0,1.07s-.7.06-1.07.07-.63,0-1,0-.24,0-.23-.23q0-.93,0-1.86c0-.19,0-.24.23-.24q.93,0,1.86,0c.19,0,.25.05.24.23s0,.64,0,1Z"/><path class="cls-14" d="M55.36,54.16h-.91c-.19,0-.23-.06-.23-.23,0-.62,0-1.25,0-1.87,0-.19.06-.23.24-.23.62,0,1.24,0,1.87,0,.18,0,.23.06.23.24,0,.62,0,1.24,0,1.87,0,.18-.06.23-.24.22Z"/><path class="cls-14" d="M22,55.53c0,.36.18.85-.06,1.06s-.68.07-1,.06-.92.17-1.15-.08-.06-.73,0-1.12-.17-.86.07-1.07.68-.06,1-.05.92-.18,1.15.08S22,55.14,22,55.53Z"/><path class="cls-14" d="M23.48,56.62c-.37,0-.86.14-1.07,0s-.06-.7-.07-1.07,0-.64,0-.95,0-.24.23-.24h1.87c.18,0,.23,0,.23.23,0,.63,0,1.25,0,1.87,0,.18-.05.24-.23.24s-.64,0-1,0Z"/><path class="cls-14" d="M31.51,56.63c-.39,0-.91.15-1.12,0s-.07-.76-.07-1.15-.13-.84.05-1,.7-.06,1.07-.07.91-.13,1.12.06.06.75.07,1.15.13.84-.05,1S31.87,56.62,31.51,56.63Z"/><path class="cls-14" d="M38.31,55.46c0-.37-.19-.86,0-1.07s.68-.07,1-.06.92-.17,1.15.07.06.74.05,1.12.17.86-.07,1.07-.68.07-1,.06-.93.17-1.15-.08S38.31,55.84,38.31,55.46Z"/><path class="cls-14" d="M24.64,58c0,.39.14.9,0,1.12s-.73.06-1.11.07-.86.12-1.08-.06-.06-.7-.07-1.07-.13-.9.07-1.12.72-.06,1.11-.07.85-.12,1.08.06S24.63,57.58,24.64,58Z"/><path class="cls-14" d="M31.48,56.84c.37,0,.87-.15,1.08,0s.06.72.07,1.1.14.87-.05,1.08-.73.07-1.11.08-.87.13-1.08,0-.06-.73-.07-1.11-.14-.87.05-1.08S31.1,56.86,31.48,56.84Z"/><path class="cls-14" d="M35.29,58c0,.31,0,.61,0,.91s-.06.24-.24.24H33.2c-.19,0-.24-.06-.24-.24q0-.93,0-1.86c0-.19.06-.24.24-.24h1.87c.18,0,.24.06.23.24S35.29,57.68,35.29,58Z"/><path class="cls-14" d="M35.63,58c0-.28,0-.55,0-.83s0-.32.29-.31c.59,0,1.18,0,1.78,0,.23,0,.27.08.26.29,0,.59,0,1.19,0,1.78,0,.24-.09.27-.29.27-.59,0-1.19,0-1.78,0-.24,0-.28-.08-.27-.29S35.63,58.26,35.63,58Z"/><path class="cls-14" d="M40.59,58c0,.36.18.85-.06,1.07s-.68.06-1,0-.92.17-1.15-.08-.06-.73-.05-1.12-.16-.85.07-1.06.68-.07,1-.06.92-.17,1.15.08S40.59,57.63,40.59,58Z"/><path class="cls-14" d="M23.51,59.5c.37,0,.88-.15,1.08,0s.06.72.07,1.11.13.87-.06,1.07-.73.07-1.11.08-.87.13-1.07-.06-.07-.73-.08-1.11-.13-.87.06-1.08S23.13,59.52,23.51,59.5Z"/><path class="cls-14" d="M31.43,61.78c-.36,0-.85.18-1.06-.06s-.07-.68-.05-1-.18-.92.07-1.15.74-.06,1.13-.05.85-.17,1.06.07.06.69.05,1.05.18.92-.08,1.14S31.82,61.78,31.43,61.78Z"/><path class="cls-14" d="M34.09,61.78c-.37,0-.86.18-1.07-.06S33,61,33,60.68s-.17-.92.08-1.15.74-.06,1.12-.05.86-.16,1.07.07.06.69,0,1,.18.93-.08,1.15S34.48,61.78,34.09,61.78Z"/><path class="cls-14" d="M35.64,60.64c0-.37-.14-.87,0-1.08s.73-.07,1.11-.08.87-.14,1.08.05.07.73.08,1.11.13.87-.05,1.08-.73.06-1.11.08-.87.13-1.08-.06S35.66,61,35.64,60.64Z"/><path class="cls-14" d="M34.09,64.44c-.37,0-.86.18-1.07-.06s-.06-.69-.05-1-.18-.93.08-1.15.74-.07,1.12,0,.86-.17,1.07.07.06.69,0,1,.18.93-.08,1.15S34.48,64.44,34.09,64.44Z"/><path class="cls-14" d="M33,66c0-.37-.15-.87,0-1.08s.72-.07,1.1-.08.87-.13,1.08.06.07.72.08,1.1.13.87,0,1.08-.73.07-1.11.08-.87.13-1.08,0S33,66.33,33,66Z"/><path class="cls-14" d="M35.29,68.8c0,.3,0,.61,0,.91s-.06.23-.24.23H33.2c-.19,0-.24,0-.24-.23,0-.63,0-1.25,0-1.87,0-.18.06-.23.24-.23.62,0,1.24,0,1.87,0,.18,0,.24,0,.23.23S35.29,68.48,35.29,68.8Z"/><path class="cls-16" d="M81.45,37.61h5.8v7.1l6.08-7.1h7.72L94.2,44.7l7.16,11.69H94.21l-4-7.72-3,3.14v4.58h-5.8Z"/><path class="cls-16" d="M103.51,37.61h5.81V56.39h-5.81Z"/><path class="cls-16" d="M112.76,47a9.65,9.65,0,0,1,2.56-7.16,9.64,9.64,0,0,1,7.13-2.57q4.69,0,7.23,2.52a9.5,9.5,0,0,1,2.54,7,11.52,11.52,0,0,1-1.11,5.4,7.9,7.9,0,0,1-3.2,3.28,10.61,10.61,0,0,1-5.22,1.17,11.91,11.91,0,0,1-5.26-1,7.87,7.87,0,0,1-3.38-3.2A10.66,10.66,0,0,1,112.76,47Z"/><path class="cls-16" d="M134.33,50.18l5.52-.35a4.18,4.18,0,0,0,.73,2.05A3.07,3.07,0,0,0,143.14,53a2.84,2.84,0,0,0,1.92-.58,1.74,1.74,0,0,0,.67-1.35,1.72,1.72,0,0,0-.64-1.31,7.65,7.65,0,0,0-3-1.09,12.61,12.61,0,0,1-5.45-2.28A4.57,4.57,0,0,1,135,42.79a4.93,4.93,0,0,1,.84-2.74,5.59,5.59,0,0,1,2.53-2,11.76,11.76,0,0,1,4.61-.74,9.47,9.47,0,0,1,5.49,1.34,5.79,5.79,0,0,1,2.25,4.26l-5.47.32a2.55,2.55,0,0,0-2.84-2.42,2.33,2.33,0,0,0-1.53.43,1.32,1.32,0,0,0-.51,1,1.05,1.05,0,0,0,.42.81,4.76,4.76,0,0,0,2,.69,24.47,24.47,0,0,1,5.45,1.66,5.79,5.79,0,0,1,2.4,2.08,5.29,5.29,0,0,1,.75,2.78,6,6,0,0,1-1,3.33,6.29,6.29,0,0,1-2.8,2.32,11.35,11.35,0,0,1-4.52.78q-4.78,0-6.63-1.84A7.26,7.26,0,0,1,134.33,50.18Z"/><path class="cls-16" d="M154.31,37.61h5.81v7.1l6.07-7.1h7.72l-6.85,7.09,7.16,11.69h-7.15l-4-7.72-3,3.14v4.58h-5.81Z"/><text class="cls-17" transform="translate(121.75 78.62)">2EV</text><rect class="cls-18" x="180.29" y="37.61" width="55.64" height="39.83" rx="10.64"/><text class="cls-19" transform="translate(184.83 69.09)">1 . 0</text><path class="cls-14" d="M127.1,46.69a2.65,2.65,0,0,0-3.2-1.6h0a2.63,2.63,0,0,0-3.19-1.61,2.28,2.28,0,0,0-1.51,3l1.67,4.62,4.71-1.4h0A2.3,2.3,0,0,0,127.1,46.69Z"/><path class="cls-20" d="M125.19,47.09a1.45,1.45,0,0,0-1.77-.89h0a1.48,1.48,0,0,0-1.78-.9A1.29,1.29,0,0,0,120.8,47l.93,2.56,2.62-.78h0A1.27,1.27,0,0,0,125.19,47.09Z"/></g></g></svg>